<?xml version="1.0" encoding="utf-8"?>
<!-- Generator: Adobe Illustrator 16.0.0, SVG Export Plug-In . SVG Version: 6.00 Build 0)  -->
<!DOCTYPE svg PUBLIC "-//W3C//DTD SVG 1.1//EN" "http://www.w3.org/Graphics/SVG/1.1/DTD/svg11.dtd">
<svg version="1.1" id="Layer_1" xmlns="http://www.w3.org/2000/svg" xmlns:xlink="http://www.w3.org/1999/xlink" x="0px" y="0px"
	 width="200px" height="200px" viewBox="0 0 200 200" enable-background="new 0 0 200 200" xml:space="preserve">
<g>
	<polyline fill="#009640" points="119.349,171.388 144.268,171.388 144.268,127.629 	"/>
	<path d="M144.268,173.67h-24.919c-1.262,0-2.282-1.021-2.282-2.282s1.021-2.282,2.282-2.282h22.637v-41.477
		c0-1.262,1.021-2.282,2.282-2.282s2.282,1.021,2.282,2.282v43.759C146.55,172.649,145.529,173.67,144.268,173.67z"/>
</g>
<g>
	<polyline fill="#009640" points="57.142,127.633 57.142,171.388 81.388,171.388 	"/>
	<path d="M81.388,173.67H57.142c-1.261,0-2.282-1.021-2.282-2.282v-43.755c0-1.261,1.021-2.281,2.282-2.281
		c1.262,0,2.282,1.021,2.282,2.281v41.473h21.964c1.261,0,2.282,1.021,2.282,2.282S82.649,173.67,81.388,173.67z"/>
</g>
<g>
	<polyline fill="#FFED00" points="100.121,22.024 58.274,22.024 54.098,37.526 49.913,41.707 49.913,83.522 54.833,88.442 
		54.833,125.463 57.142,127.633 69.247,158.355 81.967,172.007 92.37,176.99 100.121,177.788 	"/>
	<path d="M100.123,180.07c-0.078,0-0.156-0.005-0.236-0.014l-7.75-0.798c-0.261-0.026-0.515-0.098-0.751-0.21l-10.403-4.982
		c-0.259-0.125-0.49-0.294-0.684-0.504l-12.72-13.651c-0.196-0.21-0.35-0.455-0.455-0.718l-11.918-30.25l-1.934-1.818
		c-0.459-0.433-0.72-1.034-0.72-1.662V89.388l-4.252-4.252c-0.428-0.428-0.669-1.007-0.669-1.614V41.707
		c0-0.606,0.241-1.186,0.669-1.614l3.755-3.75l4.016-14.911c0.27-0.997,1.172-1.689,2.204-1.689h41.847
		c1.261,0,2.282,1.021,2.282,2.282c0,1.261-1.021,2.282-2.282,2.282H60.023l-3.722,13.812c-0.105,0.388-0.308,0.74-0.591,1.021
		l-3.517,3.512v39.926l4.252,4.252c0.428,0.428,0.669,1.007,0.669,1.613v36.035l1.589,1.493c0.247,0.231,0.437,0.513,0.562,0.824
		l11.947,30.321l12.13,13.019l9.656,4.627l7.356,0.758c1.252,0.129,2.164,1.248,2.035,2.5
		C102.27,179.196,101.279,180.07,100.123,180.07z"/>
</g>
<g>
	<polyline fill="#FFED00" points="100.112,22.02 142.811,22.02 147.075,37.521 151.346,41.702 151.346,83.518 146.326,88.438 
		146.326,125.458 143.969,127.629 131.614,158.351 118.635,172.003 108.603,177.4 100.112,177.788 	"/>
	<path d="M100.11,180.07c-1.212,0-2.222-0.954-2.278-2.18c-0.058-1.257,0.916-2.327,2.175-2.38l7.971-0.366l9.253-4.979
		l12.426-13.072l12.194-30.316c0.125-0.316,0.321-0.598,0.57-0.829l1.623-1.493V88.438c0-0.613,0.245-1.201,0.687-1.629l4.332-4.25
		V42.66l-3.584-3.508c-0.289-0.283-0.499-0.637-0.605-1.025l-3.802-13.826h-40.96c-1.261,0-2.282-1.021-2.282-2.282
		c0-1.261,1.021-2.282,2.282-2.282h42.699c1.024,0,1.93,0.687,2.201,1.676l4.101,14.909l3.828,3.749
		c0.441,0.43,0.687,1.018,0.687,1.631v41.815c0,0.613-0.245,1.201-0.687,1.629l-4.332,4.25v36.062c0,0.638-0.268,1.248-0.735,1.681
		l-1.979,1.818l-12.163,30.245c-0.107,0.268-0.264,0.513-0.464,0.722l-12.979,13.652c-0.165,0.174-0.361,0.32-0.57,0.437
		l-10.033,5.397c-0.303,0.16-0.638,0.254-0.98,0.268l-8.488,0.388C100.181,180.07,100.146,180.07,100.11,180.07z"/>
</g>
<g>
	<rect x="60.819" y="101.359" fill="#E52420" width="25.806" height="26.586"/>
	<path d="M86.625,130.228H60.819c-1.261,0-2.282-1.021-2.282-2.282v-26.586c0-1.262,1.021-2.282,2.282-2.282h25.806
		c1.261,0,2.282,1.021,2.282,2.282v26.586C88.907,129.206,87.886,130.228,86.625,130.228z M63.101,125.663h21.242v-22.022H63.101
		V125.663z"/>
</g>
<g>
	<rect x="114.445" y="101.359" fill="#E52420" width="25.807" height="26.586"/>
	<path d="M140.252,130.228h-25.807c-1.261,0-2.281-1.021-2.281-2.282v-26.586c0-1.262,1.021-2.282,2.281-2.282h25.807
		c1.261,0,2.282,1.021,2.282,2.282v26.586C142.534,129.206,141.513,130.228,140.252,130.228z M116.728,125.663h21.242v-22.022
		h-21.242V125.663z"/>
</g>
<g>
	<path d="M117.633,143.567h-34.11c-0.695,0-1.355-0.317-1.787-0.865c-0.433-0.544-0.593-1.257-0.435-1.935l3.102-13.34
		c0.285-1.226,1.506-1.992,2.739-1.707c1.228,0.285,1.99,1.516,1.705,2.741l-2.451,10.541h28.34l-2.527-10.514
		c-0.294-1.226,0.459-2.461,1.685-2.755c1.262-0.28,2.456,0.468,2.755,1.685l3.204,13.331c0.161,0.682,0.005,1.399-0.428,1.948
		C118.992,143.246,118.332,143.567,117.633,143.567z"/>
</g>
<g>
	<path d="M117.633,163.432h-34.11c-1.261,0-2.282-1.021-2.282-2.282v-11.485c0-1.262,1.021-2.282,2.282-2.282h34.11
		c1.261,0,2.281,1.021,2.281,2.282v11.485C119.914,162.411,118.894,163.432,117.633,163.432z M85.805,158.868h29.546v-6.922H85.805
		V158.868z"/>
</g>
<g>
	<path d="M112.382,157.687H89.727c-1.261,0-2.282-1.021-2.282-2.282c0-1.261,1.021-2.281,2.282-2.281h22.655
		c1.262,0,2.282,1.021,2.282,2.281C114.664,156.666,113.644,157.687,112.382,157.687z"/>
</g>
<g>
	<path d="M146.639,90.725H54.833c-1.261,0-2.282-1.021-2.282-2.282c0-1.261,1.021-2.282,2.282-2.282h91.806
		c1.262,0,2.282,1.021,2.282,2.282C148.921,89.704,147.9,90.725,146.639,90.725z"/>
</g>
<g>
	<rect x="54.098" y="35.244" width="93.299" height="4.564"/>
</g>
</svg>
